<?xml version="1.0" standalone="no"?>
<!DOCTYPE svg PUBLIC "-//W3C//DTD SVG 20010904//EN"
 "http://www.w3.org/TR/2001/REC-SVG-20010904/DTD/svg10.dtd">
<svg version="1.0" xmlns="http://www.w3.org/2000/svg"
 width="700.000000pt" height="700.000000pt" viewBox="0 0 700.000000 700.000000"
 preserveAspectRatio="xMidYMid meet">
<metadata>
Created by potrace 1.11, written by Peter Selinger 2001-2013
</metadata>
<g transform="translate(0.000000,700.000000) scale(0.100000,-0.100000)"
fill="#000000" stroke="none">
<path d="M2520 6984 c-175 -35 -356 -132 -485 -260 -85 -84 -181 -220 -214
-301 -11 -26 -22 -35 -55 -44 -58 -15 -176 -71 -233 -110 -151 -103 -267 -263
-322 -442 -27 -89 -34 -144 -33 -249 0 -70 -2 -87 -15 -92 -45 -18 -167 -110
-234 -177 -118 -119 -194 -244 -248 -407 -36 -108 -40 -131 -48 -265 -6 -121
7 -222 44 -331 l23 -70 -61 -60 c-314 -311 -371 -792 -143 -1203 l34 -62 -34
-54 c-91 -141 -144 -335 -140 -512 5 -220 97 -452 240 -608 l39 -42 0 -135 c0
-156 7 -214 41 -316 100 -307 324 -541 622 -648 39 -14 72 -24 72 -21 0 2 11
0 24 -5 29 -11 115 -22 169 -21 32 0 39 -5 53 -32 9 -18 20 -34 23 -37 3 -3
26 -31 50 -63 92 -121 249 -245 396 -313 81 -37 185 -73 235 -80 19 -3 42 -8
50 -11 8 -3 71 -7 140 -8 217 -5 378 36 565 146 151 89 309 244 387 380 18 32
36 59 39 59 3 0 12 -15 21 -33 25 -52 131 -187 195 -248 301 -287 711 -381
1091 -248 101 36 207 90 289 150 80 58 211 193 262 271 l43 65 87 6 c317 22
616 232 774 542 76 150 107 295 104 475 -2 105 0 127 14 141 35 35 100 123
132 178 177 303 175 660 -5 960 l-38 64 34 61 c108 192 157 433 133 643 -11
88 -52 224 -93 307 -48 95 -101 167 -179 247 l-65 65 24 71 c32 95 37 127 42
268 7 263 -83 502 -271 714 -42 47 -165 144 -225 178 l-50 28 3 51 c5 67 -10
195 -30 269 -71 258 -277 471 -535 555 -61 19 -66 24 -86 68 -50 111 -170 262
-281 352 -96 79 -259 159 -386 190 -115 28 -299 20 -445 -20 -197 -53 -418
-226 -543 -423 l-18 -28 -38 58 c-130 201 -356 358 -596 414 -72 17 -269 19
-345 3z m307 -277 c282 -73 497 -329 530 -632 6 -52 9 -1098 4 -1137 -1 -3
-19 2 -41 13 -103 50 -244 65 -299 33 -41 -24 -71 -85 -65 -132 10 -75 51
-109 150 -123 121 -17 216 -92 245 -194 9 -29 12 -391 13 -1343 1 -717 -1
-1308 -4 -1313 -3 -4 -35 19 -70 52 -125 117 -281 206 -445 254 -91 26 -137
34 -248 41 -71 5 -82 3 -121 -20 -90 -53 -93 -163 -5 -228 17 -13 48 -20 99
-23 214 -14 380 -84 529 -221 263 -244 336 -620 186 -959 -51 -116 -164 -259
-260 -330 -22 -17 -42 -32 -45 -35 -5 -5 -22 -15 -84 -49 -182 -101 -433 -112
-646 -30 -188 72 -335 208 -453 420 -38 66 -69 78 -192 74 -109 -5 -175 8
-272 51 -185 81 -351 282 -407 490 -20 74 -26 192 -14 271 4 32 10 71 12 86 7
46 -15 89 -72 142 -90 83 -182 238 -208 352 -16 69 -13 238 6 308 20 77 67
185 81 185 5 0 30 -16 55 -35 68 -52 216 -121 314 -145 119 -30 237 -34 278
-10 90 55 92 181 3 233 -17 10 -52 20 -78 22 -27 2 -68 7 -93 11 -137 22 -248
82 -361 194 -73 73 -93 101 -137 190 -59 122 -84 225 -81 345 5 214 111 412
291 544 97 70 109 120 54 235 -53 114 -69 179 -69 296 -2 198 67 367 208 518
53 57 158 132 220 158 188 78 405 62 579 -43 77 -47 201 -171 245 -245 64
-109 111 -265 111 -368 0 -58 22 -104 63 -128 67 -42 157 -19 192 49 16 29 22
123 11 174 -2 11 -7 41 -10 67 -25 182 -159 427 -309 564 -197 179 -419 263
-670 252 l-97 -4 0 31 c0 16 7 60 14 96 34 159 152 307 299 374 187 86 429 59
569 -64 96 -83 153 -99 215 -61 89 54 92 151 6 231 -102 94 -204 152 -338 190
-44 13 -82 24 -84 26 -17 11 127 156 209 211 146 98 325 131 487 89z m1626 4
c139 -32 289 -134 394 -268 l33 -41 -38 -6 c-62 -11 -163 -47 -222 -79 -118
-65 -229 -165 -231 -210 -6 -79 9 -114 64 -147 63 -39 119 -22 217 63 42 37
157 91 223 105 26 5 86 9 131 7 153 -5 280 -65 393 -185 65 -68 133 -239 133
-333 l0 -32 -122 0 c-138 0 -188 -6 -285 -36 -230 -71 -443 -251 -566 -480
-39 -74 -93 -223 -102 -284 -3 -23 -8 -52 -10 -65 -12 -57 -6 -158 9 -189 43
-83 156 -97 221 -27 25 27 30 48 40 152 26 289 220 537 494 631 64 23 93 27
186 26 119 0 186 -16 293 -71 189 -96 351 -325 380 -537 20 -153 2 -272 -64
-410 -55 -116 -44 -166 54 -236 129 -94 213 -210 264 -363 32 -96 34 -267 4
-376 -82 -307 -342 -530 -635 -544 -71 -4 -109 -21 -137 -64 -28 -41 -27 -110
2 -150 35 -47 79 -62 166 -57 155 9 316 65 456 159 37 25 71 46 74 46 12 0 70
-144 84 -212 48 -227 -39 -486 -215 -640 -67 -58 -75 -91 -53 -215 36 -207
-43 -444 -201 -606 -154 -158 -303 -220 -512 -215 -121 4 -144 -9 -189 -97
-172 -341 -566 -520 -931 -424 -219 58 -438 249 -538 470 -148 328 -88 685
158 935 154 156 326 235 545 248 36 2 70 5 77 5 7 1 28 15 47 32 74 65 61 176
-26 220 -36 18 -52 20 -122 15 -45 -3 -92 -8 -106 -11 -13 -2 -42 -7 -63 -10
-60 -9 -205 -63 -277 -102 -98 -54 -147 -89 -232 -165 -59 -52 -78 -65 -79
-51 0 10 -1 605 -1 1323 0 1446 -5 1335 64 1422 39 49 137 98 197 98 87 0 144
56 144 142 0 47 -3 54 -41 89 -40 38 -54 42 -125 41 -49 -1 -141 -24 -189 -47
-29 -13 -48 -18 -49 -11 0 6 -1 268 -1 581 0 540 1 574 21 647 39 149 105 261
212 364 165 156 380 221 582 175z"/>
<path d="M2761 5849 c-121 -54 -94 -234 39 -255 111 -18 193 122 125 212 -45
59 -98 73 -164 43z"/>
<path d="M1525 4714 c-55 -27 -70 -60 -70 -149 0 -105 9 -165 40 -259 51 -155
127 -280 238 -389 120 -117 254 -196 413 -242 49 -14 93 -27 97 -28 13 -4 -51
-118 -86 -155 -72 -74 -166 -117 -282 -128 -100 -9 -149 -54 -149 -135 0 -54
21 -91 67 -120 60 -38 248 -10 378 56 147 74 281 232 335 391 14 44 29 82 32
86 4 3 23 9 42 12 204 31 486 198 505 299 10 50 1 80 -36 121 -53 61 -138 58
-209 -7 -157 -141 -421 -192 -635 -123 -112 36 -197 88 -286 177 -63 62 -85
92 -122 170 -48 100 -64 158 -73 272 -7 84 -29 128 -78 151 -42 20 -82 20
-121 0z"/>
<path d="M2628 2775 c-2 -1 -38 -5 -80 -8 -187 -15 -406 -97 -578 -218 -160
-113 -360 -351 -376 -447 -5 -31 -1 -49 16 -80 52 -93 167 -98 234 -9 15 19
26 37 26 41 0 7 40 63 65 93 178 208 404 328 655 349 119 10 140 13 164 29 79
52 79 177 0 225 -27 17 -115 35 -126 25z"/>
<path d="M1521 1662 c-81 -44 -94 -155 -26 -218 26 -24 50 -31 135 -39 230
-21 441 -167 554 -385 54 -105 72 -167 82 -290 3 -41 13 -90 22 -109 43 -94
189 -94 238 0 35 69 10 269 -56 435 -31 77 -72 152 -127 228 -113 158 -291
289 -473 350 -92 30 -122 35 -230 42 -71 5 -90 2 -119 -14z"/>
<path d="M4134 5855 c-47 -20 -76 -59 -81 -109 -7 -61 15 -106 67 -135 66 -37
138 -16 181 52 37 59 10 154 -53 185 -38 18 -82 21 -114 7z"/>
<path d="M5350 4712 c-49 -27 -67 -65 -75 -154 -17 -222 -128 -416 -303 -531
-251 -166 -557 -153 -803 32 -103 78 -178 77 -237 -6 -24 -34 -24 -108 0 -145
25 -38 142 -122 233 -168 77 -39 237 -90 281 -90 17 0 24 -11 38 -61 45 -164
162 -315 310 -403 129 -77 334 -117 405 -79 71 37 95 108 61 178 -25 52 -59
71 -139 80 -123 13 -214 56 -285 135 -35 39 -91 138 -83 146 3 3 17 7 33 10
54 10 159 47 226 79 273 134 458 377 524 687 3 13 7 62 11 109 5 68 2 92 -11
120 -34 70 -119 98 -186 61z"/>
<path d="M4289 2770 c-87 -25 -128 -113 -88 -191 28 -56 58 -70 176 -80 319
-28 568 -172 740 -428 31 -46 70 -92 87 -102 109 -66 241 48 192 166 -49 117
-223 314 -365 413 -136 95 -282 160 -441 196 -105 25 -260 38 -301 26z"/>
<path d="M5224 1659 c-215 -46 -421 -181 -559 -364 -92 -123 -172 -303 -190
-430 -3 -22 -8 -50 -10 -62 -12 -52 -7 -151 9 -181 36 -70 125 -94 194 -52 41
25 58 65 65 155 12 153 52 263 142 390 120 169 302 275 502 291 83 7 130 29
155 74 34 65 14 142 -48 180 -41 26 -139 26 -260 -1z"/>
</g>
</svg>
